<svg width="22" height="26" viewBox="0 0 22 26" fill="none" xmlns="http://www.w3.org/2000/svg">
<g opacity="0.25">
<path fill-rule="evenodd" clip-rule="evenodd" d="M17.0721 9.39093C16.0697 11.7958 13.7164 13.3593 11.111 13.3515C7.56546 13.3356 4.69813 10.4597 4.69287 6.91407C4.69288 4.30863 6.2634 1.96011 8.67126 0.964861C11.0791 -0.0303882 13.8495 0.523908 15.689 2.36899C17.5286 4.21407 18.0746 6.98607 17.0721 9.39093ZM15.7381 4.99589C14.9595 3.13019 13.1327 1.91813 11.111 1.92592C8.36288 1.93652 6.13995 4.16592 6.13732 6.91407C6.13538 8.93572 7.35274 10.759 9.22069 11.5322C11.0886 12.3054 13.2385 11.8759 14.6659 10.4443C16.0934 9.01269 16.5167 6.86159 15.7381 4.99589Z" fill="black"/>
<path d="M11.111 13.3515L11.1105 13.4765H11.1106L11.111 13.3515ZM17.0721 9.39093L16.9567 9.34284L17.0721 9.39093ZM4.69287 6.91407L4.56787 6.91407L4.56787 6.91426L4.69287 6.91407ZM11.111 1.92592L11.1115 2.05092L11.111 1.92592ZM15.7381 4.99589L15.6227 5.04403L15.7381 4.99589ZM6.13732 6.91407L6.01232 6.91395L6.13732 6.91407ZM9.22069 11.5322L9.17288 11.6477L9.22069 11.5322ZM14.6659 10.4443L14.5774 10.356L14.6659 10.4443ZM11.1106 13.4765C13.7667 13.4844 16.1656 11.8906 17.1875 9.43903L16.9567 9.34284C15.9738 11.701 13.6662 13.2341 11.1114 13.2265L11.1106 13.4765ZM4.56787 6.91426C4.57323 10.5286 7.49616 13.4603 11.1105 13.4765L11.1116 13.2265C7.63476 13.2109 4.82303 10.3907 4.81787 6.91389L4.56787 6.91426ZM8.62351 0.84934C6.16889 1.86392 4.56788 4.25804 4.56787 6.91407L4.81787 6.91407C4.81788 4.35922 6.3579 2.05631 8.71901 1.08038L8.62351 0.84934ZM15.7775 2.28073C13.9023 0.399825 11.0781 -0.165235 8.62351 0.84934L8.71901 1.08038C11.0801 0.104458 13.7967 0.647991 15.6005 2.45724L15.7775 2.28073ZM17.1875 9.43903C18.2094 6.98746 17.6528 4.16164 15.7775 2.28073L15.6005 2.45724C17.4043 4.2665 17.9397 6.98467 16.9567 9.34284L17.1875 9.43903ZM11.1115 2.05092C13.0825 2.04332 14.8636 3.22504 15.6227 5.04403L15.8534 4.94775C15.0553 3.03534 13.1828 1.79293 11.1105 1.80092L11.1115 2.05092ZM6.26232 6.91419C6.26488 4.23484 8.43217 2.06126 11.1115 2.05092L11.1105 1.80092C8.2936 1.81179 6.01501 4.097 6.01232 6.91395L6.26232 6.91419ZM9.2685 11.4167C7.44731 10.6629 6.26043 8.88523 6.26232 6.91419L6.01232 6.91395C6.01033 8.98621 7.25816 10.8552 9.17288 11.6477L9.2685 11.4167ZM14.5774 10.356C13.1857 11.7518 11.0897 12.1706 9.2685 11.4167L9.17288 11.6477C11.0876 12.4403 13.2913 12 14.7545 10.5325L14.5774 10.356ZM15.6227 5.04403C16.3818 6.86303 15.9691 8.96027 14.5774 10.356L14.7545 10.5325C16.2177 9.06511 16.6515 6.86016 15.8534 4.94775L15.6227 5.04403Z" fill="black"/>
<path fill-rule="evenodd" clip-rule="evenodd" d="M5.59333 16.1826H16.6674C19.2005 16.1879 21.2511 18.2429 21.2511 20.776V21.2574C21.2511 23.7916 19.1968 25.846 16.6626 25.846H5.58852C3.05545 25.8433 1.00265 23.7905 1 21.2574V20.776C1.00265 18.2402 3.05761 16.1853 5.59333 16.1826ZM16.6674 24.3774C18.4027 24.3748 19.8088 22.9687 19.8115 21.2334L19.8067 20.7519C19.804 19.0158 18.3987 17.6083 16.6626 17.603H5.58852C3.85242 17.6083 2.44709 19.0158 2.44444 20.7519V21.2334C2.4471 22.9706 3.85613 24.3774 5.59333 24.3774H16.6674Z" fill="black"/>
<path d="M16.6674 16.1826L16.6677 16.0576H16.6674V16.1826ZM5.59333 16.1826V16.0576L5.5932 16.0576L5.59333 16.1826ZM21.2511 20.776L21.1261 20.7759V20.776H21.2511ZM5.58852 25.846L5.58839 25.971H5.58852V25.846ZM1 21.2574H0.875L0.875 21.2576L1 21.2574ZM1 20.776L0.875 20.7758V20.776H1ZM19.8115 21.2334L19.9365 21.2335L19.9365 21.2321L19.8115 21.2334ZM16.6674 24.3774V24.5024H16.6676L16.6674 24.3774ZM19.8067 20.7519L19.6817 20.7521L19.6817 20.7531L19.8067 20.7519ZM16.6626 17.603L16.663 17.478H16.6626V17.603ZM5.58852 17.603V17.478L5.58814 17.478L5.58852 17.603ZM2.44444 20.7519L2.31944 20.7517V20.7519H2.44444ZM2.44444 21.2334H2.31944L2.31944 21.2335L2.44444 21.2334ZM5.59333 24.3774V24.2524V24.3774ZM16.6674 16.0576H5.59333V16.3076H16.6674V16.0576ZM21.3761 20.776C21.3761 18.1739 19.2697 16.0631 16.6677 16.0576L16.6671 16.3076C19.1313 16.3128 21.1261 18.3118 21.1261 20.7759L21.3761 20.776ZM21.3761 21.2574V20.776H21.1261V21.2574H21.3761ZM16.6626 25.971C19.2658 25.971 21.3761 23.8606 21.3761 21.2574H21.1261C21.1261 23.7226 19.1277 25.721 16.6626 25.721V25.971ZM5.58852 25.971H16.6626V25.721H5.58852V25.971ZM0.875 21.2576C0.877726 23.8596 2.98639 25.9682 5.58839 25.971L5.58865 25.721C3.12451 25.7184 1.12758 23.7214 1.125 21.2573L0.875 21.2576ZM0.875 20.776V21.2574H1.125V20.776H0.875ZM5.5932 16.0576C2.98854 16.0603 0.877726 18.1712 0.875 20.7758L1.125 20.7761C1.12758 18.3093 3.12667 16.3102 5.59346 16.3076L5.5932 16.0576ZM19.6865 21.2332C19.6839 22.8996 18.3337 24.2499 16.6672 24.2524L16.6676 24.5024C18.4718 24.4997 19.9337 23.0378 19.9365 21.2335L19.6865 21.2332ZM19.6817 20.7531L19.6865 21.2346L19.9365 21.2321L19.9317 20.7506L19.6817 20.7531ZM16.6622 17.728C18.3295 17.7331 19.6791 19.0848 19.6817 20.7521L19.9317 20.7517C19.9289 18.9468 18.4679 17.4835 16.663 17.478L16.6622 17.728ZM5.58852 17.728H16.6626V17.478H5.58852V17.728ZM2.56944 20.7521C2.57198 19.0848 3.92161 17.7331 5.5889 17.728L5.58814 17.478C3.78322 17.4835 2.32219 18.9468 2.31944 20.7517L2.56944 20.7521ZM2.56944 21.2334V20.7519H2.31944V21.2334H2.56944ZM5.59333 24.2524C3.92509 24.2524 2.572 22.9014 2.56944 21.2332L2.31944 21.2335C2.32221 23.0397 3.78717 24.5024 5.59333 24.5024V24.2524ZM16.6674 24.2524H5.59333V24.5024H16.6674V24.2524Z" fill="black"/>
</g>
</svg>
